<?xml version="1.0" encoding="UTF-8" standalone="no"?>
<svg
   width="688.02313"
   height="685.81549"
   version="1.1"
   id="svg71"
   xmlns="http://www.w3.org/2000/svg"
   xmlns:svg="http://www.w3.org/2000/svg">
  <defs
     id="defs71" />
  <g
     id="g62"
     transform="translate(-674.04047,-654.30157)">
    <path
       fill="#142b47"
       d="m 1006.65,654.453 q 4.11,-0.122 8.22,-0.146 4.12,-0.023 8.23,0.052 4.11,0.075 8.22,0.249 4.11,0.175 8.21,0.448 4.1,0.272 8.2,0.644 4.1,0.372 8.18,0.841 4.09,0.47 8.16,1.038 4.07,0.568 8.13,1.234 4.06,0.666 8.1,1.429 4.04,0.763 8.06,1.623 4.03,0.86 8.02,1.817 4,0.956 7.98,2.008 3.98,1.053 7.92,2.2 3.95,1.148 7.87,2.39 3.92,1.243 7.81,2.579 3.89,1.336 7.75,2.765 3.86,1.43 7.68,2.951 3.82,1.522 7.6,3.135 3.78,1.613 7.53,3.316 3.74,1.704 7.44,3.497 3.7,1.793 7.36,3.674 3.66,1.882 7.27,3.851 3.61,1.968 7.17,4.024 3.56,2.055 7.07,4.195 3.51,2.14 6.97,4.364 3.46,2.224 6.87,4.53 3.4,2.307 6.75,4.695 3.35,2.387 6.64,4.855 3.29,2.467 6.52,5.013 3.23,2.546 6.4,5.169 3.17,2.623 6.27,5.321 3.1,2.698 6.14,5.47 3.2,2.86 6.34,5.8 3.13,2.94 6.19,5.957 3.05,3.017 6.03,6.111 2.99,3.093 5.89,6.26 2.9,3.166 5.72,6.405 2.82,3.239 5.56,6.547 2.74,3.309 5.4,6.685 2.66,3.376 5.23,6.817 2.57,3.442 5.05,6.947 2.48,3.505 4.88,7.071 2.39,3.567 4.7,7.192 2.3,3.625 4.52,7.307 2.21,3.682 4.33,7.418 2.12,3.736 4.14,7.524 2.03,3.788 3.96,7.626 1.93,3.838 3.76,7.723 1.83,3.885 3.57,7.814 1.73,3.93 3.37,7.902 1.64,3.972 3.17,7.984 1.54,4.012 2.97,8.061 1.44,4.049 2.77,8.132 1.33,4.084 2.56,8.2 1.23,4.116 2.36,8.261 1.12,4.146 2.15,8.318 1.02,4.172 1.93,8.369 0.92,4.197 1.73,8.415 0.81,4.218 1.52,8.456 0.7,4.237 1.3,8.491 0.6,4.254 1.09,8.521 0.5,4.267 0.88,8.546 0.39,4.278 0.66,8.565 0.28,4.287 0.45,8.579 0.22,4.074 0.35,8.152 0.12,4.079 0.14,8.16 0.02,4.08 -0.07,8.16 -0.08,4.08 -0.27,8.15 -0.18,4.08 -0.47,8.15 -0.29,4.07 -0.68,8.13 -0.39,4.06 -0.88,8.11 -0.5,4.05 -1.09,8.09 -0.59,4.04 -1.29,8.06 -0.7,4.02 -1.49,8.02 -0.8,4 -1.7,7.98 -0.89,3.98 -1.89,7.94 -1,3.96 -2.09,7.89 -1.1,3.93 -2.3,7.83 -1.19,3.9 -2.48,7.77 -1.3,3.87 -2.69,7.7 -1.39,3.84 -2.87,7.64 -1.49,3.8 -3.07,7.56 -1.58,3.76 -3.25,7.49 -1.68,3.72 -3.45,7.39 -1.77,3.68 -3.63,7.31 -1.86,3.63 -3.81,7.22 -1.95,3.58 -3.99,7.11 -2.04,3.54 -4.17,7.02 -2.13,3.48 -4.34,6.91 -2.22,3.42 -4.52,6.79 -2.3,3.37 -4.68,6.68 -2.39,3.31 -4.86,6.56 -2.46,3.25 -5.01,6.44 -2.55,3.18 -5.18,6.31 -2.63,3.12 -5.33,6.17 -2.71,3.05 -5.49,6.04 c -63.39,69.4 -147.98,111.15 -242.28,115.4 -90.61,2 -177.202,-26.88 -245.061,-87.93 -66.947,-60.24 -108.292,-142.06 -113.059,-232.31 q -0.249,-4.28 -0.391,-8.57 -0.142,-4.29 -0.177,-8.58 -0.035,-4.29 0.036,-8.58 0.072,-4.29 0.25,-8.577 0.178,-4.287 0.463,-8.568 0.285,-4.281 0.676,-8.554 0.391,-4.272 0.889,-8.534 0.497,-4.261 1.1,-8.509 0.604,-4.248 1.313,-8.48 0.708,-4.231 1.522,-8.444 0.814,-4.213 1.733,-8.404 0.918,-4.191 1.94,-8.358 1.023,-4.167 2.149,-8.307 1.126,-4.14 2.354,-8.251 1.229,-4.111 2.559,-8.19 1.33,-4.079 2.762,-8.124 1.431,-4.044 2.963,-8.052 1.532,-4.008 3.162,-7.976 1.631,-3.969 3.361,-7.896 1.729,-3.926 3.555,-7.809 1.826,-3.882 3.749,-7.718 1.922,-3.836 3.939,-7.622 2.017,-3.787 4.128,-7.523 2.111,-3.735 4.314,-7.417 2.203,-3.681 4.497,-7.307 2.294,-3.626 4.678,-7.193 2.383,-3.568 4.855,-7.075 2.471,-3.507 5.029,-6.952 2.558,-3.444 5.201,-6.824 2.643,-3.38 5.369,-6.693 2.727,-3.313 5.535,-6.558 2.807,-3.244 5.695,-6.417 C 827.559,697.188 912.138,659.25 1006.65,654.453 Z M 881.209,1053.95 q 19.434,-22.39 39.601,-44.12 c 9.078,-9.928 17.957,-20.974 28.648,-29.184 q -0.454,37.924 -0.456,75.854 c 0.02,18.29 -0.324,36.66 0.175,54.94 16.006,0.12 32.085,0.55 48.081,-0.04 -0.127,-76.24 -1.04,-152.602 0.26,-228.824 -7.194,-0.173 -14.409,-0.468 -21.604,-0.475 l -56.768,60.203 c -12.789,13.553 -26.54,26.94 -38.154,41.52 -11.489,-11.635 -22.129,-24.035 -33.277,-35.988 q -30.961,-32.798 -61.461,-66.025 c -7.531,0.195 -15.12,0.209 -22.633,0.731 -0.482,0.484 -1.172,0.827 -1.444,1.454 -0.849,1.957 -0.208,197.674 -0.116,219.504 q 0.022,4.03 0.115,8.06 c 16.536,0.13 33.339,0.71 49.843,-0.32 l -0.166,-131.26 c 11.059,9.06 20.595,20.32 30.201,30.88 z M 1209.67,882.081 c -14.09,13.744 -27.54,28.108 -41.46,42.015 -16.25,16.226 -33.28,32.266 -48.58,49.352 q -0.4,-45.62 -0.24,-91.243 l -47.41,0.119 -0.12,229.306 q 23.73,0.21 47.47,0.07 -0.24,-51.26 0.66,-102.51 l 64.93,66.6 c 11.78,12.05 23.49,25.68 36.7,36.15 20.53,-0.26 41.08,0.13 61.6,-0.3 -15.09,-17.6 -32.49,-33.42 -48.52,-50.18 -22.47,-22.79 -47.1,-45.27 -67.36,-69.975 34.88,-38.051 73.57,-72.71 109.89,-109.384 z"
       id="path1" />
    <path
       fill="#051d3b"
       d="m 756.794,958.613 c 4.853,6.161 2.304,91.047 1.617,104.637 -0.152,-2.16 -0.471,-4.21 -0.871,-6.33 l -2.21,-0.99 c -2.152,-7.38 -0.691,-18.31 -0.678,-26.17 -1.433,-12.55 -1.149,-55.435 0.323,-68.121 l 0.567,0.235 c 0.813,11.527 0.491,22.845 1.806,34.43 l 0.419,-0.202 c 0.185,-11.363 2.219,-26.69 -0.973,-37.489 z"
       id="path2" />
    <path
       fill="#142b47"
       d="m 1834.71,1829.33 0.57,-1.39 c -12.32,-18.76 -16.35,-48.26 -16.67,-70.29 -0.68,-46.18 12.53,-90.8 45.54,-124.52 q 1.1,-1.14 2.23,-2.26 1.14,-1.11 2.29,-2.2 1.16,-1.09 2.35,-2.14 1.18,-1.06 2.39,-2.09 1.21,-1.03 2.45,-2.03 1.23,-1 2.49,-1.96 1.26,-0.97 2.54,-1.91 1.28,-0.94 2.59,-1.84 1.31,-0.9 2.63,-1.78 1.33,-0.87 2.68,-1.71 1.35,-0.84 2.72,-1.64 1.36,-0.81 2.75,-1.58 1.39,-0.77 2.8,-1.51 1.4,-0.74 2.83,-1.44 1.42,-0.7 2.86,-1.37 1.44,-0.67 2.9,-1.3 1.46,-0.63 2.93,-1.23 1.47,-0.59 2.96,-1.15 1.49,-0.56 2.99,-1.09 1.49,-0.52 3.01,-1 1.51,-0.49 3.03,-0.94 1.53,-0.45 3.06,-0.86 1.53,-0.41 3.08,-0.78 1.54,-0.37 3.1,-0.71 1.55,-0.33 3.11,-0.63 1.56,-0.29 3.13,-0.55 1.56,-0.26 3.14,-0.48 1.57,-0.22 3.15,-0.4 1.57,-0.18 3.16,-0.32 1.58,-0.14 3.16,-0.25 1.59,-0.1 3.18,-0.16 1.58,-0.07 3.17,-0.09 c -0.15,10.83 -2.03,29.36 0.76,39.33 l -0.24,114.91 c -0.03,19.74 1.27,40.58 -0.43,60.19 2.25,49.39 -0.11,99.38 0.67,148.87 l -248.71,0.03 -84.63,-0.03 c -14.39,-0.01 -29.32,-0.9 -43.63,0.25 -1.35,-0.91 -0.97,-0.34 -1.45,-1.94 -1.39,-4.63 -0.85,-11.2 -0.84,-16.03 0.02,-24.86 4.26,-46.31 16.85,-68 20.17,-34.74 52.03,-57.53 90.65,-67.78 48.71,-12.93 95.49,-0.13 137.99,24.58 l 1.35,-0.42 -8.59,-9.61 1.98,-1.2 0.02,-1.69 c -2.31,-2.66 -4.24,-5.25 -6.03,-8.28 l -0.53,-0.92 2.64,-0.25 c 6.65,8.43 14.12,16.17 21.87,23.59 z"
       id="path3" />
    <path
       fill="#9bb5c7"
       d="m 1578.8,1957.28 c -1.35,-0.91 -0.97,-0.34 -1.45,-1.94 -1.39,-4.63 -0.85,-11.2 -0.84,-16.03 0.02,-24.86 4.26,-46.31 16.85,-68 20.17,-34.74 52.03,-57.53 90.65,-67.78 48.71,-12.93 95.49,-0.13 137.99,24.58 l 1.35,-0.42 c 13.74,11.3 25.38,26.44 38.46,38.73 -38.45,-11.72 -77.07,-9.06 -112.81,9.93 q -8.11,4.37 -15.78,9.47 c -31.1,-8.33 -66.21,-1.16 -93.77,14.73 -16.24,9.35 -32.86,22.73 -44.78,37.23 -5.06,6.15 -9.86,14.38 -15.87,19.5 z"
       id="path4" />
    <path
       fill="#9bb5c7"
       d="m 1834.71,1829.33 0.57,-1.39 c -12.32,-18.76 -16.35,-48.26 -16.67,-70.29 -0.68,-46.18 12.53,-90.8 45.54,-124.52 q 1.1,-1.14 2.23,-2.26 1.14,-1.11 2.29,-2.2 1.16,-1.09 2.35,-2.14 1.18,-1.06 2.39,-2.09 1.21,-1.03 2.45,-2.03 1.23,-1 2.49,-1.96 1.26,-0.97 2.54,-1.91 1.28,-0.94 2.59,-1.84 1.31,-0.9 2.63,-1.78 1.33,-0.87 2.68,-1.71 1.35,-0.84 2.72,-1.64 1.36,-0.81 2.75,-1.58 1.39,-0.77 2.8,-1.51 1.4,-0.74 2.83,-1.44 1.42,-0.7 2.86,-1.37 1.44,-0.67 2.9,-1.3 1.46,-0.63 2.93,-1.23 1.47,-0.59 2.96,-1.15 1.49,-0.56 2.99,-1.09 1.49,-0.52 3.01,-1 1.51,-0.49 3.03,-0.94 1.53,-0.45 3.06,-0.86 1.53,-0.41 3.08,-0.78 1.54,-0.37 3.1,-0.71 1.55,-0.33 3.11,-0.63 1.56,-0.29 3.13,-0.55 1.56,-0.26 3.14,-0.48 1.57,-0.22 3.15,-0.4 1.57,-0.18 3.16,-0.32 1.58,-0.14 3.16,-0.25 1.59,-0.1 3.18,-0.16 1.58,-0.07 3.17,-0.09 c -0.15,10.83 -2.03,29.36 0.76,39.33 -5.17,1.65 -11.17,9.5 -14.89,13.56 -45.69,44.79 -66.3,101.01 -66.85,164.28 -0.2,23.49 1.54,45.81 8.37,68.43 -15.13,-17.3 -31.78,-33.41 -47.69,-50 z"
       id="path5" />
    <path
       fill="#142b47"
       d="m 179.903,1544.93 c 37.393,21.14 69.906,51.65 85.415,92.46 14.697,38.66 12.745,85.07 -4.258,122.59 28.423,-27.23 54.434,-56.74 83.568,-83.34 -15.378,-17.37 -27.842,-34.67 -33.954,-57.41 -2.984,-11.1 -7.284,-59.12 -1.696,-67.11 0.865,-1.23 2.84,-0.93 4.23,-1.09 l 103.338,0.07 c 14.341,-0.01 34.605,1.96 48.253,-1.08 l 0.024,173.94 c -43.062,-3.91 -82.785,-12.22 -115.147,-43.16 -26.286,26.59 -52.154,54.89 -80.015,79.77 54.33,-8.02 99.379,2.11 143.901,35.36 17.018,12.71 38.62,30.95 49.418,49.47 -29.517,-0.57 -59.437,-1.46 -88.925,-0.01 -41.271,2.03 -78.381,12.47 -119.669,1.06 -12.666,-3.5 -23.656,-9.8 -34.658,-16.79 -3.097,-1.97 -6.866,-5.34 -10.274,-6.53 -1.259,-1.01 -1.454,-1.75 -1.786,-3.3 -0.072,-0.34 -0.13,-0.68 -0.195,-1.01 l -2.405,-0.5 c -47.859,-50.03 -28.163,-115.3 -25.376,-175.88 1.487,-32.32 0.302,-65.16 0.211,-97.51 z"
       id="path6" />
    <path
       fill="#9bb5c7"
       d="M 69.2822,81.9044 433.666,81.805 c -28.279,18.992 -53.493,42.134 -79.164,64.387 -10.216,8.856 -21.212,16.904 -30.985,26.247 l -4.298,0.167 -0.752,-2.117 c -22.004,9.509 -46.031,12.901 -69.943,12.668 -5.187,-0.051 -10.441,-1.05 -15.522,-1.07 -9.064,-0.92 -18.013,-1.927 -26.914,-3.956 q -2.618,-0.584 -5.221,-1.232 -2.602,-0.648 -5.189,-1.36 -2.586,-0.712 -5.153,-1.487 -2.568,-0.775 -5.116,-1.614 -2.548,-0.838 -5.074,-1.739 -2.527,-0.9 -5.031,-1.863 -2.503,-0.962 -4.982,-1.986 -2.48,-1.024 -4.933,-2.108 -2.453,-1.085 -4.879,-2.229 -2.426,-1.145 -4.823,-2.348 -2.397,-1.204 -4.763,-2.466 -2.367,-1.263 -4.702,-2.583 -2.335,-1.32 -4.636,-2.697 -2.302,-1.378 -4.569,-2.811 -2.267,-1.433 -4.498,-2.922 -2.232,-1.489 -4.425,-3.032 -2.194,-1.543 -4.35,-3.14 -2.155,-1.596 -4.27,-3.245 -2.116,-1.65 -4.19,-3.35 -2.074,-1.701 -4.106,-3.452 -2.031,-1.751 -4.019,-3.552 -1.988,-1.801 -3.932,-3.65 -1.943,-1.849 -3.8397,-3.745 -1.8971,-1.896 -3.747,-3.838 -1.8498,-1.943 -3.6514,-3.93 -1.8015,-1.987 -3.5536,-4.018 -1.7521,-2.031 -3.4538,-4.104 -1.7016,-2.073 -3.3517,-4.1881 -1.6501,-2.1146 -3.2478,-4.2691 -1.5976,-2.1546 -3.1417,-4.3477 -1.5442,-2.1932 -3.0339,-4.4237 -1.4898,-2.2305 -2.9242,-4.497 z"
       id="path7" />
    <path
       fill="#9bb5c7"
       d="m 205.068,1818.32 2.405,0.5 c 0.065,0.33 0.123,0.67 0.195,1.01 0.332,1.55 0.527,2.29 1.786,3.3 -14.212,16.02 -30.709,30.14 -45.511,45.61 0.51,0.05 1.019,0.1 1.53,0.13 6.591,0.41 34.971,-7.23 46.738,-7.9 q 3.214,-0.17 6.432,-0.25 3.217,-0.08 6.436,-0.08 3.219,0 6.436,0.1 3.217,0.09 6.431,0.27 3.213,0.17 6.421,0.44 3.208,0.26 6.407,0.62 3.199,0.35 6.388,0.79 3.189,0.44 6.364,0.96 3.176,0.52 6.336,1.13 3.161,0.61 6.303,1.31 3.143,0.69 6.265,1.47 3.123,0.78 6.224,1.65 3.1,0.86 6.176,1.81 3.076,0.95 6.125,1.98 3.049,1.03 6.069,2.14 3.021,1.11 6.01,2.31 2.989,1.19 5.944,2.47 2.956,1.27 5.876,2.62 2.92,1.36 5.803,2.79 2.882,1.43 5.725,2.94 2.842,1.51 5.643,3.1 2.801,1.58 5.558,3.24 2.757,1.67 5.468,3.4 2.711,1.74 5.374,3.54 2.663,1.81 5.276,3.69 2.613,1.88 5.175,3.83 2.561,1.95 5.069,3.96 2.508,2.02 4.96,4.11 2.452,2.08 4.847,4.23 2.395,2.15 4.731,4.37 2.336,2.21 4.612,4.49 2.275,2.27 4.488,4.61 9.467,10.15 17.711,21.32 c -32.284,1.38 -64.858,0.67 -97.18,0.65 l -151.953,0.03 -61.773,-0.01 c -10.3909,0.01 -21.3987,-0.67 -31.7016,0.36 -0.0565,-0.08 -0.1263,-0.16 -0.1694,-0.25 -1.3567,-2.81 -0.5997,-3.79 0.1677,-6.69 9.6446,-11.19 19.9836,-21.57 30.7513,-31.67 3.482,-3.2 6.807,-6.4 9.95,-9.96 10.866,-8.37 20.616,-19.56 30.365,-29.22 z"
       id="path8" />
    <path
       fill="#051d3b"
       d="m 205.068,1818.32 2.405,0.5 c 0.065,0.33 0.123,0.67 0.195,1.01 0.332,1.55 0.527,2.29 1.786,3.3 -14.212,16.02 -30.709,30.14 -45.511,45.61 -17.963,17.04 -34.514,36.11 -52.965,52.5 -8.928,8.82 -28.292,31.61 -38.2916,36.12 -0.0565,-0.08 -0.1263,-0.16 -0.1694,-0.25 -1.3567,-2.81 -0.5997,-3.79 0.1677,-6.69 9.6446,-11.19 19.9836,-21.57 30.7513,-31.67 3.482,-3.2 6.807,-6.4 9.95,-9.96 10.866,-8.37 20.616,-19.56 30.365,-29.22 z"
       id="path9" />
    <path
       fill="#9bb5c7"
       d="m 73.2864,1557.11 c 31.4216,31.55 54.0196,59.53 69.3786,102.22 22.106,61.45 20.388,135.03 -0.898,196.64 -3.549,10.26 -8.518,19.87 -12.971,29.75 -3.067,6.8 -14.243,16.42 -15.354,21.97 -0.072,0.36 -0.037,0.74 -0.056,1.1 -3.143,3.56 -6.468,6.76 -9.95,9.96 -10.7677,10.1 -21.1067,20.48 -30.7513,31.67 l 0.3771,-193.51 q -0.4246,-99.9 0.2246,-199.8 z"
       id="path10" />
    <path
       fill="#9bb5c7"
       d="m 465.067,79.3289 c -3.014,41.9981 -0.785,87.9571 -0.723,130.3391 l -0.367,237.799 c -44.131,-30.889 -70.78,-75.062 -80.067,-128.1 -11.711,-66.871 1.215,-138.885 40.527,-194.807 1.905,-2.711 4.84,-5.656 5.144,-9.009 7.737,-10.878 32.603,-23.6976 35.486,-36.2221 z"
       id="path11" />
    <path
       fill="#9bb5c7"
       d="m 1748.54,1741.71 c -0.04,-0.41 -0.05,-0.82 -0.12,-1.23 -0.87,-4.82 -7.53,-19 -9.46,-26.77 q -0.42,-1.7 -0.79,-3.4 -0.37,-1.71 -0.7,-3.43 -0.33,-1.71 -0.62,-3.44 -0.29,-1.72 -0.53,-3.45 -0.25,-1.73 -0.45,-3.47 -0.2,-1.73 -0.35,-3.47 -0.16,-1.74 -0.27,-3.49 -0.12,-1.74 -0.19,-3.49 -0.07,-1.74 -0.09,-3.49 -0.03,-1.75 -0.01,-3.49 0.01,-1.75 0.08,-3.5 0.06,-1.74 0.16,-3.49 0.11,-1.74 0.26,-3.48 0.14,-1.74 0.34,-3.48 0.19,-1.74 0.42,-3.47 0.24,-1.73 0.52,-3.46 0.28,-1.72 0.6,-3.44 0.32,-1.72 0.68,-3.43 0.37,-1.7 0.78,-3.4 0.4,-1.7 0.85,-3.39 0.45,-1.69 0.94,-3.37 0.5,-1.67 1.03,-3.34 0.53,-1.66 1.11,-3.31 0.57,-1.65 1.19,-3.29 0.61,-1.63 1.27,-3.25 0.66,-1.62 1.36,-3.22 0.69,-1.6 1.43,-3.19 0.74,-1.58 1.51,-3.15 0.78,-1.56 1.59,-3.11 0.82,-1.55 1.67,-3.07 0.86,-1.52 1.75,-3.03 0.89,-1.5 1.82,-2.98 0.79,-1.24 1.6,-2.45 0.82,-1.22 1.67,-2.41 0.84,-1.2 1.72,-2.37 0.88,-1.18 1.78,-2.33 0.91,-1.15 1.84,-2.28 0.93,-1.13 1.89,-2.23 0.96,-1.11 1.95,-2.19 0.99,-1.09 2,-2.14 1.01,-1.06 2.05,-2.09 1.04,-1.03 2.11,-2.04 1.06,-1.01 2.15,-1.99 1.09,-0.98 2.2,-1.93 1.11,-0.95 2.25,-1.88 1.14,-0.92 2.29,-1.82 1.16,-0.9 2.34,-1.76 1.18,-0.87 2.38,-1.71 1.2,-0.84 2.43,-1.65 1.22,-0.81 2.46,-1.58 1.24,-0.78 2.5,-1.53 1.26,-0.75 2.54,-1.46 1.27,-0.72 2.57,-1.4 1.29,-0.69 2.61,-1.34 1.31,-0.65 2.63,-1.27 1.33,-0.62 2.67,-1.21 1.35,-0.59 2.7,-1.14 1.36,-0.55 2.73,-1.07 1.37,-0.52 2.75,-1.01 1.38,-0.49 2.77,-0.94 1.4,-0.45 2.8,-0.87 1.41,-0.42 2.82,-0.8 1.41,-0.38 2.84,-0.73 1.42,-0.35 2.85,-0.66 c 35.68,-7.74 88.27,-2.92 125.48,-2.9 -60.54,30.73 -117.83,76.4 -139.61,143.24 -10.46,32.09 -14.44,78.91 -4.24,111.44 l -2.64,0.25 c -5.11,-7.31 -13.14,-14.16 -19.34,-20.67 -13.98,-14.66 -27.68,-29.61 -42.32,-43.61 z"
       id="path12" />
    <path
       fill="#142b47"
       d="m 1822.01,850.931 c 0.06,-10.565 -1.39,-64.318 1.46,-69.775 l 2.3,-1.39 c 1.16,0.313 2.03,0.181 2.65,1.36 2.01,3.8 0.52,72.503 0.71,82.779 -0.22,9.38 0.71,19.605 -0.93,28.789 4.29,5.657 17.66,8.691 24.32,12.333 49.72,27.208 78.08,67.922 83.4,124.403 -37.01,-8.17 -67.44,-28.22 -88.05,-60.297 -4.93,-7.666 -8.94,-15.628 -12.45,-24.027 l -2.31,-0.836 c -0.52,-1.403 -1.06,-2.799 -1.53,-4.22 1.03,23.207 -0.14,46.726 -0.02,69.99 0.14,29.28 0.5,58.53 -0.35,87.81 -0.21,7.1 0.71,14.57 -0.87,21.53 l -0.97,0.31 c 0.01,-7.03 0.99,-15.73 -0.58,-22.49 -4.09,16.78 3.86,76.05 -0.61,88.18 -0.79,2.15 -1.19,2.27 -3.13,3.18 l -2.3,-0.9 c -2.18,-11.2 -0.57,-35.56 -0.7,-48.01 -18.21,-7.23 -35.91,-18.15 -50.24,-31.55 -30.59,-28.6 -45.48,-64.97 -46.88,-106.37 13.67,5.17 27.12,11.35 39.28,19.5 30.41,20.4 50.53,49.64 57.49,85.59 q 0.58,-24.81 0.44,-49.63 c 1.7,-15.67 0.57,-32.59 0.64,-48.46 0.08,-17.599 1.85,-38.008 -0.65,-55.396 0.33,-20.603 0.04,-41.271 0.04,-61.88 z"
       id="path13" />
    <path
       fill="#f5fdfc"
       d="m 1828.95,921.605 c 2.53,7.702 4.41,15.66 6.47,23.501 l -2.31,-0.836 c -0.52,-1.403 -1.06,-2.799 -1.53,-4.22 1.03,23.207 -0.14,46.726 -0.02,69.99 0.14,29.28 0.5,58.53 -0.35,87.81 -0.21,7.1 0.71,14.57 -0.87,21.53 l -0.97,0.31 c 0.01,-7.03 0.99,-15.73 -0.58,-22.49 -1.44,-18.46 0,-37.98 0.03,-56.54 z"
       id="path14" />
    <path
       fill="#142b47"
       d="m 72.4952,442.765 c 2.4874,-32.427 11.8366,-58.634 34.5368,-82.557 15.371,-16.199 37.576,-32.162 59.352,-38.093 8.042,-2.191 20.874,-3.278 27.5,-8.108 15.396,-11.221 31.189,-27.54 46.011,-40.213 24.021,-20.538 47,-41.945 70.634,-62.885 25.278,-22.397 51.12,-44.142 76.329,-66.655 l 47.08,-42.141 c 7.81,-6.9875 16.216,-16.1429 25.146,-21.4644 1.982,-1.1814 3.722,-1.2631 5.983,-1.3197 -2.883,12.5245 -27.749,25.3441 -35.486,36.2221 -19.8,16.378 -38.271,34.438 -57.532,51.454 -17.797,14.922 -36.228,29.552 -52.969,45.66 -20.71,18.186 -43.715,37.856 -62.806,57.593 9.619,52.784 11.669,102.57 -20.293,148.567 -7.084,10.194 -15.381,19.015 -24.05,27.847 -9.43,-28.079 -13.998,-53.39 -9.281,-82.965 1.275,-7.989 4.232,-16.33 5.095,-24.223 9.822,-23.759 19.889,-38.405 35.102,-58.941 -15.044,11.418 -29.057,24.715 -43.312,37.123 -1.408,1.059 -2.775,2.22 -3.668,3.771 -3.346,5.815 -4.717,13.665 -7.038,20.036 -2.557,7.021 -6.304,13.866 -9.915,20.396 -23.583,42.642 -60.249,67.641 -106.4188,80.896 z"
       id="path15" />
    <path
       fill="#9bb5c7"
       d="m 385.665,164.085 c -1.374,19.796 -9.314,43.067 -11.99,63.694 -4.116,31.724 -5.311,63.905 -9.002,95.713 -4.394,37.863 -15.73,88.167 -27.695,124.437 -33.267,-35.643 -48.892,-71.917 -47.315,-121.246 q 0.127,-3.335 0.376,-6.664 0.25,-3.328 0.622,-6.645 0.371,-3.317 0.865,-6.619 0.493,-3.301 1.108,-6.581 0.614,-3.281 1.349,-6.537 0.735,-3.256 1.589,-6.483 0.854,-3.227 1.826,-6.42 0.972,-3.193 2.06,-6.348 1.089,-3.155 2.293,-6.268 1.204,-3.113 2.522,-6.18 1.318,-3.067 2.747,-6.083 1.43,-3.016 2.969,-5.978 1.54,-2.961 3.187,-5.864 1.647,-2.903 3.401,-5.744 1.752,-2.84 3.609,-5.614 1.856,-2.774 3.813,-5.478 c 9.413,-11.4 18.545,-23.086 29.325,-33.264 10.391,-9.811 23.858,-18.331 32.341,-29.828 z"
       id="path16" />
    <path
       fill="#9bb5c7"
       d="m 233.002,182.087 c 5.081,0.02 10.335,1.019 15.522,1.07 23.912,0.233 47.939,-3.159 69.943,-12.668 l 0.752,2.117 4.298,-0.167 c -46.936,55.283 -106.814,109.345 -182.514,115.498 -22.574,1.834 -48.1388,1.143 -68.7806,-9.219 36.3866,-45.279 83.4266,-74.411 139.0976,-89.794 4.281,-1.182 20.424,-3.793 21.682,-6.837 z"
       id="path17" />
    <path
       fill="#142b47"
       d="m 1590.2,428.406 c 26.12,-27.341 50.61,-34.012 87.85,-34.863 26.07,-0.595 52.23,-0.247 78.31,-0.27 47.69,-0.042 110.77,-4.602 150.21,26.944 -22.64,9.613 -45.61,18.416 -70.4,20.299 -29.35,2.645 -60.35,0.521 -89.85,0.526 l -166.04,0.044 c 3.17,-4.328 6.57,-8.485 9.92,-12.68 z"
       id="path18" />
    <path
       fill="#142b47"
       d="m 1780.95,82.1715 47.08,-0.1648 -0.35,154.1943 c -0.04,27.103 -1.62,55.115 0.17,82.108 5.91,8.457 13.22,15.608 20.65,22.715 12.98,14.637 27.81,29.39 42.32,42.462 l 15.86,16.34 c 14.44,15.134 35.48,31.436 46.33,48.918 -2.32,-0.01 -3.57,-0.054 -5.67,-1.202 -8.89,-4.849 -17.57,-16.113 -24.76,-23.309 -8.96,-8.951 -18.3,-17.5 -27.16,-26.543 -10.14,-10.349 -19.81,-21.298 -30.55,-31.033 -12.71,-13.637 -26.53,-27.704 -40.7,-39.807 -6.07,-10.713 -38.52,-37.903 -49.55,-49.935 0.17,-0.495 0.44,-0.966 0.52,-1.486 0.39,-2.535 -0.3,-3.206 1.22,-5.644 l 4.89,5.219 0.52,-0.026 -0.37,-4.49 0.87,0.095 c -0.06,-0.315 -0.13,-0.627 -0.18,-0.944 -1.97,-14.009 -0.47,-36.184 -0.57,-50.971 -0.31,-45.461 0.63,-91.064 -0.57,-136.4965 z"
       id="path19" />
    <path
       fill="#9bb5c7"
       d="m 1578.21,404.807 c 1.19,-13.428 3.93,-25.577 11.64,-36.88 12.49,-18.312 32.64,-27.955 53.91,-31.975 21.01,-3.97 43.66,-3.023 64.99,-3.193 31.67,-0.253 67.24,-3 98,5.603 15.61,4.366 28.69,12.327 41.99,21.318 l 1.74,2.017 c -1.75,2.315 -4.02,2.754 -6.65,3.868 -69.47,30.295 -148.09,2.714 -219.92,20.563 -16.19,4.024 -30.8,11.383 -45.7,18.679 z"
       id="path20" />
    <path
       fill="#9bb5c7"
       d="m 885.517,1784.41 c 35.259,0.9 66.544,7.17 92.516,32.78 23.927,23.59 30.997,53 31.227,85.73 l 5.9,7.12 c 0.11,-29.48 -2.16,-59.84 -0.04,-89.2 l 7.34,-1.86 c -2.51,29.3 -1.69,60.29 -0.76,89.66 -0.77,2.52 -0.53,3.04 0.15,5.63 l 1.65,0.99 c -3.49,4.9 -2.52,12.53 -2.55,18.38 -1.52,-3.9 -0.16,-9.14 -2.62,-12.3 l -1.61,1.79 c -1.34,-1.42 -1.2,-2.33 -1.58,-4.2 -0.78,-3.08 -3.79,-5.23 -6.01,-7.36 -20.579,0.06 -51.667,-11.12 -68.899,-22.65 q -1.101,-0.74 -2.184,-1.51 -1.084,-0.76 -2.15,-1.55 -1.065,-0.79 -2.113,-1.61 -1.048,-0.81 -2.077,-1.65 -1.029,-0.83 -2.039,-1.69 -1.009,-0.86 -1.999,-1.75 -0.99,-0.88 -1.96,-1.79 -0.97,-0.9 -1.919,-1.83 -0.949,-0.93 -1.876,-1.87 -0.928,-0.95 -1.834,-1.92 -0.906,-0.97 -1.79,-1.96 -0.883,-0.99 -1.744,-2 -0.862,-1.01 -1.7,-2.04 -0.838,-1.02 -1.652,-2.07 -0.814,-1.05 -1.605,-2.11 -0.791,-1.07 -1.557,-2.15 -0.766,-1.09 -1.507,-2.19 -0.742,-1.1 -1.458,-2.21 -0.716,-1.12 -1.407,-2.25 -0.691,-1.13 -1.356,-2.28 -0.665,-1.15 -1.304,-2.31 -0.638,-1.17 -1.251,-2.34 -0.612,-1.18 -1.197,-2.37 -0.586,-1.19 -1.144,-2.39 -0.558,-1.21 -1.089,-2.42 -0.531,-1.22 -1.034,-2.45 -0.503,-1.22 -0.979,-2.46 -0.475,-1.24 -0.922,-2.49 -0.447,-1.25 -0.865,-2.51 -0.419,-1.26 -0.809,-2.52 -0.39,-1.27 -0.751,-2.55 -0.361,-1.28 -0.693,-2.56 c -3.02,-12.11 -4.313,-24.49 -6.749,-36.71 z"
       id="path21" />
    <path
       fill="#051d3b"
       d="m 887.764,1786.29 c 20.085,12.32 37.072,32.72 53.706,49.33 l 67.79,67.3 5.9,7.12 c 0.11,-29.48 -2.16,-59.84 -0.04,-89.2 l 7.34,-1.86 c -2.51,29.3 -1.69,60.29 -0.76,89.66 -0.77,2.52 -0.53,3.04 0.15,5.63 l 1.65,0.99 c -3.49,4.9 -2.52,12.53 -2.55,18.38 -1.52,-3.9 -0.16,-9.14 -2.62,-12.3 l -1.61,1.79 c -1.34,-1.42 -1.2,-2.33 -1.58,-4.2 -0.78,-3.08 -3.79,-5.23 -6.01,-7.36 -11.163,-13.13 -24.177,-24.95 -36.51,-36.97 q -25.36,-24.65 -50.233,-49.8 c -12.305,-12.36 -24.977,-23.85 -34.623,-38.51 z"
       id="path22" />
    <path
       fill="#9bb5c7"
       d="m 1848.5,341.024 c -2.05,-13.042 -1.95,-26.544 -2.16,-39.723 -0.49,-30.725 -1.49,-61.714 17.47,-87.731 18.85,-25.85 53.15,-38.956 83.69,-43.871 q 3.42,-0.541 6.88,-0.755 -0.59,19.851 -0.48,39.71 c -16.4,5.78 -51.21,19.383 -58.67,36.046 -6.08,13.594 -2.82,114.031 -4.41,138.786 -14.51,-13.072 -29.34,-27.825 -42.32,-42.462 z"
       id="path23" />
    <path
       fill="#9bb5c7"
       d="m 1029.33,1900.8 c 0.67,-8.57 0.09,-17.22 0.85,-25.82 1.84,-20.83 11.76,-42.68 26.17,-57.81 24.85,-26.1 58.15,-32.59 92.64,-33.39 1.35,2.8 0.33,5.26 -0.13,8.28 -5.39,39.94 -15.8,67.89 -48.76,93.1 -20.47,15.66 -46.07,24.05 -71.64,26.07 l -4.96,4.03 -1.65,-0.99 c -0.68,-2.59 -0.92,-3.11 -0.15,-5.63 2.92,-1.3 5.53,-5.38 7.63,-7.84 z"
       id="path24" />
    <path
       fill="#9bb5c7"
       d="m 1029.33,1900.8 c 0.67,-8.57 0.09,-17.22 0.85,-25.82 1.84,-20.83 11.76,-42.68 26.17,-57.81 24.85,-26.1 58.15,-32.59 92.64,-33.39 -19.61,14.48 -36.45,32.94 -53.63,50.16 q -33.42,33.03 -66.03,66.86 z"
       id="path25" />
    <path
       fill="#051d3b"
       d="m 1148.99,1783.78 c 1.35,2.8 0.33,5.26 -0.13,8.28 -0.26,0.18 -0.51,0.37 -0.78,0.54 -1.59,0.99 -0.53,0.39 -2.22,0.83 -2.13,0.56 -3.94,2.01 -5.55,3.45 -14.59,13.1 -27.76,28.79 -41.7,42.73 -22.79,22.79 -49.6,47.12 -70.15,71.62 l -4.96,4.03 -1.65,-0.99 c -0.68,-2.59 -0.92,-3.11 -0.15,-5.63 2.92,-1.3 5.53,-5.38 7.63,-7.84 q 32.61,-33.83 66.03,-66.86 c 17.18,-17.22 34.02,-35.68 53.63,-50.16 z"
       id="path26" />
    <path
       fill="#9bb5c7"
       d="m 1906.68,399.826 c -0.89,-27.707 -0.53,-55.551 -0.66,-83.276 -0.09,-16.923 -1.5,-35.522 0.51,-52.251 0.63,-5.293 1.85,-12.172 5.61,-16.243 10.05,-10.894 28.35,-12.354 42.24,-13.875 q -0.73,74.919 -0.42,149.843 c -0.02,17.803 1.9,48.065 -0.95,64.72 -10.85,-17.482 -31.89,-33.784 -46.33,-48.918 z"
       id="path27" />
    <path
       fill="#9bb5c7"
       d="m 1574.53,1781.67 c 10.84,-9.13 23.26,-18.09 35.67,-24.9 29.92,-16.4 75.03,-24.53 108.43,-16 10.18,2.59 20.23,9.26 29.65,11.62 0.36,0.1 0.73,0.14 1.1,0.21 13.51,12.28 26.03,25.9 38.72,39.02 -8.31,0 -17,-1.89 -25.26,-2.91 -15.58,-1.91 -31.79,-2.66 -47.45,-1.22 -28.88,2.66 -57.26,13.99 -86.14,14.57 -19.68,0.39 -40.45,-6.56 -54.72,-20.39 z"
       id="path28" />
    <path
       fill="#142b47"
       d="m 1577.55,275.252 c 24.11,-0.393 48.26,-0.117 72.37,-0.127 50.53,-0.021 99.93,-1.71 143.83,27.58 -4.89,0.94 -9.31,2.031 -14,3.805 -13.22,5.269 -26.54,9.766 -40.65,12.009 -23.14,3.681 -47.41,2.428 -70.79,2.383 l -90.52,-0.045 q 0.03,-22.803 -0.24,-45.605 z"
       id="path29" />
    <path
       fill="#142b47"
       d="m 1717.44,82.3426 45.49,-0.2202 c -1.51,56.5086 -0.55,113.2546 -0.82,169.7936 3.42,6.714 9.22,12.302 14.25,17.869 -1.52,2.438 -0.83,3.109 -1.22,5.644 -0.08,0.52 -0.35,0.991 -0.52,1.486 -6.21,-5.585 -11.66,-12.067 -17.47,-18.068 l -33.45,-33.926 c -16.82,-17.215 -35.03,-33.867 -51.07,-51.727 -2.25,-2.498 -4.82,-5.407 -6.05,-8.545 -0.71,-1.782 -0.66,-1.047 0.13,-2.755 0.37,-0.021 0.75,-0.078 1.12,-0.063 2.01,0.079 3.69,0.786 5.23,2.049 10.96,9.005 34.47,34.034 43.94,45.358 l 1.16,1.394 c -1.65,-42.607 -0.76,-85.639 -0.72,-128.2894 z"
       id="path30" />
    <path
       fill="#142b47"
       d="m 960.136,1705.18 c 18.868,14.6 36.475,33.88 46.774,55.58 2.9,6.12 4.32,12.86 7.25,18.92 l 0.76,1.55 c 1.16,1.9 1.02,2.41 3.17,3.27 1.24,-2.06 1.96,-3.96 2.74,-6.22 4.16,-5.44 6.12,-13.83 9.07,-20.13 9.67,-20.57 25.97,-39.99 45.26,-52.21 0.23,37.91 -2.75,65.95 -30.89,94.13 -4.71,4.72 -16.13,16.64 -21.81,18.91 l -7.34,1.86 c -9.14,-6.31 -17.388,-13.04 -25.032,-21.15 -28.252,-29.95 -30.956,-54.87 -29.952,-94.51 z"
       id="path31" />
    <path
       fill="#9bb5c7"
       d="m 1744.07,1549.64 c -24.55,36.82 -25.79,116.32 -17.13,159.6 0.84,4.2 1.89,8.35 2.79,12.53 -10.22,-6.86 -40.44,-40.22 -50.09,-51.15 1.52,-5.13 -3.67,-17.47 -4.78,-23.37 -6.28,-33.55 4.26,-70.38 35.77,-87.28 10.4,-5.58 21.93,-8.17 33.44,-10.33 z"
       id="path32" />
    <path
       fill="#142b47"
       d="m 1577.74,216.127 c 47.38,0.156 119.73,-6.686 157.71,26.965 -18.22,8.338 -35.56,13.689 -55.26,17.449 l 1.49,0.717 -1.11,1.92 c -16.45,3.969 -35.72,1.764 -52.51,1.312 -10.7,-0.288 -21.34,-0.026 -32.05,-0.474 l 0.46,-0.049 c -3.32,-0.231 -8.5,-1.313 -11.55,-0.188 l 5.22,0.198 0.17,0.786 c -2.8,0.583 -5.46,0.461 -8.29,0.386 -2.35,-1.428 -2.3,-1.268 -3.03,-3.904 -3.08,-4.055 -1.32,-38.341 -1.25,-45.118 z"
       id="path33" />
    <path
       fill="#f5fdfc"
       d="m 1578.99,261.245 c 33.45,-0.055 67.88,1.757 101.2,-0.704 l 1.49,0.717 -1.11,1.92 c -16.45,3.969 -35.72,1.764 -52.51,1.312 -10.7,-0.288 -21.34,-0.026 -32.05,-0.474 l 0.46,-0.049 c -3.32,-0.231 -8.5,-1.313 -11.55,-0.188 l 5.22,0.198 0.17,0.786 c -2.8,0.583 -5.46,0.461 -8.29,0.386 -2.35,-1.428 -2.3,-1.268 -3.03,-3.904 z"
       id="path34" />
    <path
       fill="#9bb5c7"
       d="m 1579.43,1761.58 c -1.9,-12.1 -4.15,-24.3 -2.67,-36.58 1.77,-14.75 9.19,-27.29 20.91,-36.28 23.09,-17.71 50.35,-16.51 77.48,-12.98 9.82,9.63 19.15,19.78 28.8,29.59 5.46,5.55 11.91,11.02 16.73,17.11 -6.18,2.36 -19.17,-3.46 -26.16,-4.14 -11.2,-1.09 -22.9,-0.7 -34.03,0.86 -29.3,4.11 -62.76,18.23 -81.06,42.42 z"
       id="path35" />
    <path
       fill="#142b47"
       d="m 1953.28,80.0105 c 1.85,0.0564 0.88,-0.1706 2.81,0.9573 0.28,1.1259 0.53,2.1223 0.52,3.2941 -0.27,21.8171 -11.25,43.3431 -25.57,59.2141 -20.78,23.019 -52.47,31.734 -82.29,33.38 -2.12,0.116 -1.04,0.277 -3.22,-0.648 -0.76,-6.517 5.67,-17.061 8.85,-22.814 23.74,-42.968 53.13,-60.049 98.9,-73.3835 z"
       id="path36" />
    <path
       fill="#142b47"
       d="m 1578.31,80.2532 c 18.83,-0.7781 38.67,1.4898 56.34,8.2115 34.73,13.2063 54.77,38.8503 69.36,71.7983 -23.82,-0.687 -45.28,-2.113 -67.13,-12.921 -27.04,-13.373 -49.1,-38.501 -58.57,-67.0888 z"
       id="path37" />
    <path
       fill="#142b47"
       d="m 206.656,1064.1 c -32.476,-4.59 -65.148,-8.1 -93.586,-26.04 -8.405,-5.3 -35.8704,-25.77 -38.0235,-35.23 0.2127,-0.25 0.3931,-0.53 0.6381,-0.76 5.8948,-5.323 33.0114,-6.328 41.5324,-6.121 28.724,0.699 59.109,13.811 77.347,36.481 4.817,5.99 6.331,15.07 11.573,20.54 1.623,-2.51 1.007,-5.77 0.901,-8.64 0.841,-8.89 -0.091,-17.84 0.873,-26.8 1.495,14.55 1.555,32.27 -1.255,46.57 z"
       id="path38" />
    <path
       fill="#9bb5c7"
       d="m 213.935,1060.98 c 0.265,-0.42 0.534,-0.85 0.794,-1.28 4.643,-7.66 6.741,-17.07 10.998,-25.02 9.851,-18.39 31.925,-30.19 51.462,-35.373 22.365,-5.935 49.408,-5.037 70.907,3.773 -11,9.16 -20.468,20.31 -31.89,28.89 -25.929,19.48 -70.424,30.36 -102.892,32.19 z"
       id="path39" />
    <path
       fill="#9bb5c7"
       d="m 1729.81,901.693 c 14.68,4.489 28.9,11.133 41.33,20.187 31.94,23.253 44.09,52.215 50.23,90.04 1.15,-19.331 -1.58,-39.473 0.76,-58.586 2.5,17.388 0.73,37.797 0.65,55.396 -0.07,15.87 1.06,32.79 -0.64,48.46 -1.4,-12.11 -0.38,-25.26 -0.55,-37.5 -13.57,-5.21 -26.54,-11.45 -38.32,-20.046 -34.72,-25.344 -47.2,-56.998 -53.46,-97.951 z"
       id="path40" />
    <path
       fill="#9bb5c7"
       d="m 76.3731,1059.15 c 25.0789,-6.33 50.3069,-6.18 74.6799,2.99 15.388,5.78 36.389,18.52 44.704,33.21 4.256,7.52 6.359,15.41 9.905,23.11 l 1.455,-1.23 -0.01,9.83 c -0.916,-1.39 -1.429,-1.73 -3.111,-2.2 -3.947,-1.11 -9.186,-1.11 -13.291,-1.65 -10.133,-1.34 -20.357,-2.97 -30.212,-5.72 -34.59,-9.64 -59.348,-33.86 -84.1199,-58.34 z"
       id="path41" />
    <path
       fill="#9bb5c7"
       d="m 214.066,1120.04 c 0.314,-0.54 0.633,-1.07 0.942,-1.62 3.481,-6.12 4.887,-13.37 8.248,-19.55 10.86,-19.98 34.043,-33.41 55.224,-39.55 21.958,-6.36 43.965,-4.4 66.171,-0.55 -37.939,38.41 -71.402,64.62 -128.543,65.38 -0.789,0.01 -1.578,-0.02 -2.366,-0.07 z"
       id="path42" />
    <path
       fill="#142b47"
       d="m 899.834,237.044 c 6.148,0.427 12.338,0.801 18.457,1.541 33.229,4.016 68.021,22.326 85.169,52.077 2.66,4.621 8.64,22.664 10.33,24.542 0.31,0.346 0.66,0.661 0.99,0.992 -0.19,2.232 -0.78,5.113 -0.16,7.269 -15.898,-2.324 -31.905,-5.757 -46.64,-12.321 -32.328,-14.401 -55.609,-41.428 -68.146,-74.1 z"
       id="path43" />
    <path
       fill="#142b47"
       d="m 1020.84,311.468 1.63,3.419 0.64,-1.861 c 9.83,-28.186 28.13,-50.133 55.36,-63.154 18.12,-8.664 37.64,-12.185 57.57,-13.191 -15.86,35.462 -36.37,62.059 -73.94,76.215 -10.01,3.772 -24.79,9.808 -35.63,8.504 l -4.39,-1.649 c -2.3,-2.72 -1.41,-4.805 -1.24,-8.283 z"
       id="path44" />
    <path
       fill="#142b47"
       d="m 133.779,830.514 q 0.933,0.444 1.849,0.92 c 8.991,4.694 17.287,11.383 24.663,18.292 26.832,25.13 34.951,55.195 45.934,88.841 1.747,-23.212 0.808,-46.98 1.022,-70.271 3.06,4.709 1.14,36.772 1.072,44.617 l 0.202,59.306 c 0.042,10.688 1.008,22.497 -0.593,33.011 -3.327,-19.808 2.149,-40.968 -1.267,-60.726 -17.637,-4.538 -35.004,-9.942 -48.288,-23.048 -24.961,-24.628 -24.607,-58.361 -24.594,-90.942 z"
       id="path45" />
    <path
       fill="#142b47"
       d="m 214.106,937.064 c 0.312,-0.583 0.634,-1.162 0.937,-1.75 4.464,-8.674 6.381,-18.897 9.675,-28.061 12.531,-34.865 30.257,-58.3 62.146,-77.478 -0.245,32.142 0.758,66.85 -24.018,91.158 -10.602,10.401 -25.585,17.705 -40.088,20.655 l -0.731,-1.459 c -2.419,0.407 -4.376,0.913 -6.755,0.008 z"
       id="path46" />
    <path
       fill="#9bb5c7"
       d="m 1573.77,1552.97 q 5.52,2.6 10.9,5.49 c 39.51,21.64 61.59,52.09 74.14,94.69 l -1.05,2.11 c -1.24,0.18 -1.22,0.22 -2.33,0.25 -16.46,0.48 -37.9,-11.44 -49.63,-22.37 -23.8,-22.18 -31.06,-48.68 -32.03,-80.17 z"
       id="path47" />
    <path
       fill="#142b47"
       d="m 956.328,100.201 c 29.987,16.75 48.872,52.253 51.552,85.741 0.71,8.915 -0.05,27.443 3.31,34.952 0.82,1.828 0.31,1.209 2.27,1.98 l 1.68,-2.729 c 0.47,6.156 0.29,11.902 -0.26,18.05 -0.13,-1.223 -0.36,-6.354 -0.97,-7.208 -2.61,-3.643 -11.5,-4.909 -15.405,-8.27 q -4.333,-3.709 -8.485,-7.62 C 954.37,181.075 957.334,145.418 956.328,100.201 Z"
       id="path48" />
    <path
       fill="#142b47"
       d="m 1079.14,101.479 c -0.06,40.007 0.81,80.159 -29.62,110.678 -7.88,7.902 -16.8,13.94 -27.22,17.984 -0.64,-2.111 -0.36,-3.663 -0.16,-5.816 4.9,-7.368 4.26,-20.392 5.05,-29.117 3.47,-38.514 18.09,-72.835 51.95,-93.729 z"
       id="path49" />
    <path
       fill="#9bb5c7"
       d="m 1578.12,157.223 c 13.61,-0.854 27.78,-1.159 41.32,0.633 23.45,3.102 47.9,13.373 62.19,33.185 1.51,2.106 1.58,2.314 1.14,4.734 l -2.35,1.349 c -26.16,7.585 -73.58,4.271 -102.26,4.106 q -0.16,-22.004 -0.04,-44.007 z"
       id="path50" />
    <path
       fill="#142b47"
       d="m 212.966,992.681 c 0.296,1.621 0.333,4.663 1.609,5.641 10.633,-37.774 34.145,-57.321 67.682,-75.995 q 9.585,-5.449 19.821,-9.543 c -8.239,34.503 -18.362,61.308 -50.208,80.576 -9.251,5.597 -23.604,13.16 -34.537,13.86 l -0.912,-3.57 c -0.682,-0.46 -1.589,-1.01 -2.129,-1.62 -2.572,-2.894 -1.556,-5.784 -1.326,-9.349 z"
       id="path51" />
    <path
       fill="#9bb5c7"
       d="m 1829.13,863.905 c 0.22,-0.357 0.44,-0.711 0.66,-1.072 3.33,-5.613 4.28,-13.665 6.88,-19.792 9.64,-22.655 31.07,-34.75 53.09,-42.775 -5.71,31.535 -9.99,61.243 -38.34,80.805 -7.22,4.986 -15,8.618 -23.22,11.623 1.64,-9.184 0.71,-19.409 0.93,-28.789 z"
       id="path52" />
    <path
       fill="#9bb5c7"
       d="m 1763.41,799.29 c 17.99,8.623 40.62,19.693 50.32,38.281 3,5.756 4.15,12.16 6.99,17.968 l 1.29,-4.608 0.16,40.523 c -6.79,-1.561 -13.03,-4.409 -18.78,-8.329 -29.28,-19.983 -33.87,-51.596 -39.98,-83.835 z"
       id="path53" />
    <path
       fill="#001124"
       d="m 208.319,912.913 c 1.142,-7.015 0.426,-20.916 4.743,-26.24 0.381,16.697 -0.749,33.813 1.044,50.391 l 1.166,3.073 c 2.379,0.905 4.336,0.399 6.755,-0.008 l 0.731,1.459 -9.238,2.849 c -0.154,13.348 1.606,36.09 -0.554,48.244 -0.23,3.565 -1.246,6.455 1.326,9.349 0.54,0.61 1.447,1.16 2.129,1.62 l 0.912,3.57 c -2.72,2.19 -3.196,2.75 -3.623,6.21 -1.845,14.92 -0.205,32.43 0.225,47.55 l -0.621,3.18 c 0.962,18.6 0.179,37.27 0.752,55.88 l -0.324,4.04 c 0.219,10.99 2.016,24.76 -2.081,35.08 l -1.503,0.73 c -5.29,-5.6 -3.2,-24.92 -3.051,-32.83 l 0.01,-9.83 c -0.064,-15.3 -0.309,-30.63 0.101,-45.92 l -0.562,-7.21 c 2.81,-14.3 2.75,-32.02 1.255,-46.57 -0.359,-3.99 -0.01,-8.27 0.017,-12.3 1.601,-10.514 0.635,-22.323 0.593,-33.011 z"
       id="path54" />
    <path
       fill="#051d3b"
       d="m 207.218,1071.31 c 2.139,3.08 1.023,33.62 2.8,42.06 l 2.218,0.08 -2.364,-1.22 2.418,1.41 0.192,0.97 -1.766,0.69 1.823,0.42 -0.056,0.56 -1.033,0.44 0.534,0.36 c 1.345,-13.74 -1.708,-40.92 0.944,-51.5 0.119,-0.48 0.257,-0.95 0.386,-1.42 0.962,18.6 0.179,37.27 0.752,55.88 l -0.324,4.04 c 0.219,10.99 2.016,24.76 -2.081,35.08 l -1.503,0.73 c -5.29,-5.6 -3.2,-24.92 -3.051,-32.83 l 0.01,-9.83 c -0.064,-15.3 -0.309,-30.63 0.101,-45.92 z"
       id="path55" />
    <path
       fill="#051d3b"
       d="m 1658.81,1653.15 c 7.74,0.48 15.32,12.19 20.83,17.47 9.65,10.93 39.87,44.29 50.09,51.15 6.05,6.83 11.94,13.92 18.81,19.94 14.64,14 28.34,28.95 42.32,43.61 6.2,6.51 14.23,13.36 19.34,20.67 l 0.53,0.92 c 1.79,3.03 3.72,5.62 6.03,8.28 l -0.02,1.69 -1.98,1.2 c -9.37,-8.05 -17.41,-18.09 -26.66,-26.46 -12.69,-13.12 -25.21,-26.74 -38.72,-39.02 -8.85,-10.61 -19.33,-19.97 -28.7,-30.16 -4.82,-6.09 -11.27,-11.56 -16.73,-17.11 -9.65,-9.81 -18.98,-19.96 -28.8,-29.59 -6.08,-6.24 -13.17,-12.8 -17.39,-20.48 z"
       id="path56" />
    <path
       fill="#051d3b"
       d="m 1015.14,220.145 c -0.08,-0.692 -0.15,-1.386 -0.19,-2.082 -1.15,-22.791 -0.09,-46.109 -0.01,-68.957 0.05,-12.552 -1.21,-26.191 0.01,-38.598 0.32,-3.347 1.18,-6.142 3.44,-8.677 l 1.58,0.163 c 4.2,9.173 1.2,81.738 0.96,95.601 0.15,2.942 0.5,6.013 0.21,8.939 0.55,5.947 0.88,11.821 1,17.791 -0.2,2.153 -0.48,3.705 0.16,5.816 -2.06,9.87 -1.96,67.807 -0.45,78.478 -3.09,0.875 -4.08,0.671 -6.96,-0.384 0.27,-23.346 -0.27,-46.692 -0.01,-70.04 0.55,-6.148 0.73,-11.894 0.26,-18.05 z"
       id="path57" />
    <path
       fill="#001124"
       d="m 1021.14,206.534 q -0.6,6.726 -1.06,13.464 -0.66,-5.282 -2.04,-10.424 c -1.95,-7.546 -2.13,-25.13 0.58,-32.41 1.45,6.129 0.4,12.454 1.83,18.529 0.15,0.637 0.32,1.268 0.48,1.902 0.15,2.942 0.5,6.013 0.21,8.939 z"
       id="path58" />
    <path
       fill="#051d3b"
       d="m 1014.93,1662.68 c 0.17,-8.54 -0.03,-17.29 1.03,-25.77 l 3.07,-1.18 -2.79,0.07 2.48,-0.57 c 1.93,3.29 2.94,6.27 3.21,10.11 1,14.38 -0.17,29.62 -0.18,44.1 -0.02,29.6 0.43,59.27 -0.92,88.84 -0.78,2.26 -1.5,4.16 -2.74,6.22 -2.15,-0.86 -2.01,-1.37 -3.17,-3.27 l -0.06,-7.51 c 1.21,-13.29 0.16,-27.61 0.17,-41 0.04,-23.32 0.53,-46.72 -0.1,-70.04 z"
       id="path59" />
    <path
       fill="#051d3b"
       d="m 207.247,868.296 q -0.353,-32.723 -0.172,-65.445 c 0.012,-5.734 -1.162,-14.477 0.049,-19.917 0.199,-0.894 0.908,-1.591 1.362,-2.386 2.377,-0.838 2.275,-0.939 4.577,0.038 1.498,3.23 1.144,97.5 -10e-4,106.087 -4.317,5.324 -3.601,19.225 -4.743,26.24 0.068,-7.845 1.988,-39.908 -1.072,-44.617 z"
       id="path60" />
    <path
       fill="#001124"
       d="m 1014.89,308.235 c 2.88,1.055 3.87,1.259 6.96,0.384 l -1.01,2.849 c -0.17,3.478 -1.06,5.563 1.24,8.283 l 4.39,1.649 c -1.49,0.705 -3.66,1.209 -4.3,2.796 -5.15,12.75 3.64,41.303 -2.45,51.678 l -1.65,0.461 c -6.12,-6.698 -2.94,-41.977 -3.45,-52.87 -0.62,-2.156 -0.03,-5.037 0.16,-7.269 z"
       id="path61" />
    <path
       fill="#051d3b"
       d="m 1015.14,1918.93 c 0.38,1.87 0.24,2.78 1.58,4.2 l 1.61,-1.79 c 2.46,3.16 1.1,8.4 2.62,12.3 0.75,5.93 1.2,16.04 -0.19,21.75 -2.02,1.4 -1.93,1.39 -4.36,1.11 -3.58,-5.4 -1.41,-30.21 -1.26,-37.57 z"
       id="path62" />
  </g>
</svg>
