<svg xmlns="http://www.w3.org/2000/svg" fill="none" viewBox="0 0 128 128">
  <path fill="#6366F1" d="M50.4 78.5a75.1 75.1 0 0 0-28.5 6.9l24.2-65.7c.7-2 3.5-2 4.3 0l23.2 65.7s-11-6.9-23.2-6.9zM80.8 78.5a76 76 0 0 0-23.2 6.9l24.4-65.7c.7-2 3.5-2 4.3 0l24.3 65.7a77 77 0 0 0-29.8-6.9z"/>
  <path fill="#F43F5E" d="M53 95.4a54.5 54.5 0 0 0-26.2 6.4l5-13.6a74 74 0 0 1 28.6-6.9c12.2 0 23.2 6.9 23.2 6.9l5 13.6A55.8 55.8 0 0 0 64 95.4a55.8 55.8 0 0 0-11 0z"/>
  <path fill="#8B5CF6" d="M84 95.4a53.5 53.5 0 0 0-20 3.4l5.2-13.6a76 76 0 0 1 23.2-6.9c12.2 0 29.8 6.9 29.8 6.9l5 13.6A54.5 54.5 0 0 0 96 95.4a66.3 66.3 0 0 0-12 0z"/>
</svg>